<svg xmlns="http://www.w3.org/2000/svg" xmlns:xlink="http://www.w3.org/1999/xlink" viewBox="0 0 310.37 377.1"><defs><style>.cls-1{fill:url(#Degradado_sin_nombre_12);}.cls-2{fill:url(#Degradado_sin_nombre_12-2);}.cls-3{fill:url(#Degradado_sin_nombre_12-3);}.cls-4{fill:url(#Degradado_sin_nombre_12-4);}.cls-5{fill:url(#Degradado_sin_nombre_12-5);}.cls-6{fill:url(#Degradado_sin_nombre_12-6);}.cls-7{fill:url(#Degradado_sin_nombre_12-7);}.cls-8{fill:url(#Degradado_sin_nombre_12-8);}.cls-9{fill:url(#Degradado_sin_nombre_12-9);}.cls-10{fill:url(#Degradado_sin_nombre_12-10);}.cls-11{fill:url(#Degradado_sin_nombre_12-11);}.cls-12{fill:url(#Degradado_sin_nombre_12-12);}.cls-13{fill:url(#Degradado_sin_nombre_12-13);}.cls-14{fill:url(#Degradado_sin_nombre_12-14);}.cls-15{fill:url(#Degradado_sin_nombre_12-15);}.cls-16{fill:url(#Degradado_sin_nombre_12-16);}.cls-17{fill:url(#Degradado_sin_nombre_12-17);}</style><linearGradient id="Degradado_sin_nombre_12" x1="247.71" y1="-62.77" x2="-195.01" y2="854.85" gradientUnits="userSpaceOnUse"><stop offset="0" stop-color="#fd425f"/><stop offset="0.56" stop-color="#93278f"/><stop offset="1" stop-color="#d3294a"/></linearGradient><linearGradient id="Degradado_sin_nombre_12-2" x1="289.29" y1="-42.71" x2="-153.44" y2="874.91" xlink:href="#Degradado_sin_nombre_12"/><linearGradient id="Degradado_sin_nombre_12-3" x1="164" y1="-103.16" x2="-278.73" y2="814.46" xlink:href="#Degradado_sin_nombre_12"/><linearGradient id="Degradado_sin_nombre_12-4" x1="152.46" y1="-108.72" x2="-290.27" y2="808.89" xlink:href="#Degradado_sin_nombre_12"/><linearGradient id="Degradado_sin_nombre_12-5" x1="164.6" y1="-102.87" x2="-278.12" y2="814.75" xlink:href="#Degradado_sin_nombre_12"/><linearGradient id="Degradado_sin_nombre_12-6" x1="155.78" y1="-107.12" x2="-286.94" y2="810.5" xlink:href="#Degradado_sin_nombre_12"/><linearGradient id="Degradado_sin_nombre_12-7" x1="176.82" y1="-96.97" x2="-265.9" y2="820.65" xlink:href="#Degradado_sin_nombre_12"/><linearGradient id="Degradado_sin_nombre_12-8" x1="150.71" y1="-109.57" x2="-292.01" y2="808.05" xlink:href="#Degradado_sin_nombre_12"/><linearGradient id="Degradado_sin_nombre_12-9" x1="149.58" y1="-110.11" x2="-293.14" y2="807.51" xlink:href="#Degradado_sin_nombre_12"/><linearGradient id="Degradado_sin_nombre_12-10" x1="345" y1="-15.83" x2="-97.72" y2="901.79" xlink:href="#Degradado_sin_nombre_12"/><linearGradient id="Degradado_sin_nombre_12-11" x1="299.49" y1="-37.79" x2="-143.24" y2="879.83" xlink:href="#Degradado_sin_nombre_12"/><linearGradient id="Degradado_sin_nombre_12-12" x1="315.88" y1="-29.88" x2="-126.84" y2="887.74" xlink:href="#Degradado_sin_nombre_12"/><linearGradient id="Degradado_sin_nombre_12-13" x1="329.61" y1="-23.25" x2="-113.11" y2="894.37" xlink:href="#Degradado_sin_nombre_12"/><linearGradient id="Degradado_sin_nombre_12-14" x1="241.18" y1="-65.92" x2="-201.54" y2="851.7" xlink:href="#Degradado_sin_nombre_12"/><linearGradient id="Degradado_sin_nombre_12-15" x1="281.13" y1="-46.64" x2="-161.59" y2="870.97" xlink:href="#Degradado_sin_nombre_12"/><linearGradient id="Degradado_sin_nombre_12-16" x1="261.52" y1="-56.11" x2="-181.2" y2="861.51" xlink:href="#Degradado_sin_nombre_12"/><linearGradient id="Degradado_sin_nombre_12-17" x1="205.33" y1="-83.21" x2="-237.39" y2="834.4" xlink:href="#Degradado_sin_nombre_12"/></defs><g id="Capa_2" data-name="Capa 2"><g id="Capa_1-2" data-name="Capa 1"><circle class="cls-1" cx="155.18" cy="129.01" r="5.69"/><path class="cls-2" d="M158.21,59v58.77a11.74,11.74,0,1,1-6.06,0V59L106.34,160.24l33.82,25.22-4.63,85.07V377.1h39.3V270.36l-4.62-84.91L204,160.24Z"/><path class="cls-3" d="M46.8,128.65l-6-.32c-.06,1.06-.06,2.13-.09,3.19H28.8v29.65H58.44V131.52H46.73C46.74,130.57,46.74,129.6,46.8,128.65Z"/><path class="cls-4" d="M41.93,116.9l6,.93c.56-3.58,1.29-7.16,2.2-10.65l-5.86-1.53C43.3,109.34,42.52,113.12,41.93,116.9Z"/><path class="cls-5" d="M89.11,40.91l3.49,5A106.58,106.58,0,0,1,101.78,40l-3-5.28C95.49,36.64,92.23,38.7,89.11,40.91Z"/><path class="cls-6" d="M71.8,55.94l4.41,4.16a107,107,0,0,1,7.84-7.53l-4-4.57A112.76,112.76,0,0,0,71.8,55.94Z"/><path class="cls-7" d="M119.77,25.53c-3.63,1.18-7.24,2.56-10.72,4.09l2.44,5.54c3.29-1.45,6.71-2.75,10.15-3.87Z"/><path class="cls-8" d="M57.81,74.11,63,77.3c1.91-3.06,4-6.07,6.19-8.93l-4.79-3.7A111.65,111.65,0,0,0,57.81,74.11Z"/><path class="cls-9" d="M57.67,86.82l-5.43-2.67A114,114,0,0,0,47.7,94.7l5.68,2.1C54.64,93.43,56.08,90.07,57.67,86.82Z"/><path class="cls-10" d="M269.62,128.33l-6.05.32c.05.95.05,1.92.07,2.87h-11.7v29.64h29.64V131.52H269.71C269.68,130.46,269.67,129.39,269.62,128.33Z"/><path class="cls-11" d="M246,64.67l-4.8,3.7a107.54,107.54,0,0,1,6.19,8.93l5.14-3.2C250.54,70.86,248.34,67.69,246,64.67Z"/><path class="cls-12" d="M252.69,86.82a105.73,105.73,0,0,1,4.29,10l5.68-2.11a111.26,111.26,0,0,0-4.53-10.55Z"/><path class="cls-13" d="M268.43,116.9c-.59-3.78-1.37-7.56-2.32-11.25l-5.86,1.53c.9,3.49,1.64,7.07,2.2,10.65Z"/><path class="cls-14" d="M190.6,25.53l-1.87,5.76a107.08,107.08,0,0,1,10.15,3.87l2.44-5.55C197.84,28.08,194.23,26.71,190.6,25.53Z"/><path class="cls-15" d="M230.29,48l-4,4.58a106.77,106.77,0,0,1,7.83,7.52l4.41-4.15C236,53.16,233.17,50.49,230.29,48Z"/><path class="cls-16" d="M208.59,40a104,104,0,0,1,9.17,5.82l3.5-5c-3.13-2.21-6.39-4.28-9.69-6.15Z"/><path class="cls-17" d="M295.1,5.44a15.29,15.29,0,0,0-15,12.25H175.9V0H134.46V17.69H30.24a15.27,15.27,0,1,0,0,6.06H131.16l1,4.7c.76-.17,1.52-.28,2.28-.43V41.43h17.69v2.46h6.06V41.43H175.9V28c.76.15,1.53.27,2.29.43l1-4.7H280.14a15.27,15.27,0,1,0,15-18.31Z"/></g></g></svg>