<svg xmlns="http://www.w3.org/2000/svg" xmlns:xlink="http://www.w3.org/1999/xlink" viewBox="0 0 316 311.76"><defs><style>.cls-1{fill:url(#Degradado_sin_nombre_2);}.cls-2{fill:url(#Degradado_sin_nombre_2-2);}</style><linearGradient id="Degradado_sin_nombre_2" x1="160.21" y1="-34.49" x2="150" y2="925.51" gradientUnits="userSpaceOnUse"><stop offset="0" stop-color="#fd425f"/><stop offset="0.9" stop-color="#93278f"/><stop offset="1" stop-color="#d3294a"/></linearGradient><linearGradient id="Degradado_sin_nombre_2-2" x1="195.03" y1="121.6" x2="192.38" y2="371.06" xlink:href="#Degradado_sin_nombre_2"/></defs><g id="Capa_2" data-name="Capa 2"><g id="Capa_1-2" data-name="Capa 1"><path class="cls-1" d="M308.19,31.5H90.93C86.71,11.69,64.63,0,44.17,0,32.47,0,21.76,3.9,14,10.72,7.79,16.24,0,27,0,45.46V265a46.77,46.77,0,0,0,46.76,46.76h261.1a8,8,0,0,0,8.12-8.12v-264A7.77,7.77,0,0,0,308.19,31.5Zm-291.95,14c0-10.06,2.92-17.53,8.44-22.73,4.87-4.22,11.69-6.49,19.49-6.49,15.26,0,31.5,9.09,31.5,22.41V228.3a47.26,47.26,0,0,0-28.91-10.07A46,46,0,0,0,16.24,229.6Zm283.5,250.06h-253a30.37,30.37,0,1,1,0-60.73c13.64,0,25.66,9.1,28.91,22.09a8.06,8.06,0,0,0,15.91-1.95V47.74H299.74V295.52h0Z"/><circle class="cls-2" cx="194.5" cy="171.38" r="40.5"/></g></g></svg>