<svg xmlns="http://www.w3.org/2000/svg" xmlns:xlink="http://www.w3.org/1999/xlink" viewBox="0 0 314.01 255.13"><defs><style>.cls-1{fill:url(#Degradado_sin_nombre_12);}.cls-2{fill:url(#Degradado_sin_nombre_12-2);}</style><linearGradient id="Degradado_sin_nombre_12" x1="157.01" y1="-44.91" x2="157.01" y2="706.35" gradientUnits="userSpaceOnUse"><stop offset="0" stop-color="#fd425f"/><stop offset="0.56" stop-color="#93278f"/><stop offset="1" stop-color="#d3294a"/></linearGradient><linearGradient id="Degradado_sin_nombre_12-2" x1="157.21" y1="-44.91" x2="157.21" y2="706.35" xlink:href="#Degradado_sin_nombre_12"/></defs><g id="Capa_2" data-name="Capa 2"><g id="Capa_1-2" data-name="Capa 1"><path class="cls-1" d="M274.76,39.25H253.17a19.38,19.38,0,0,1-13.74-5.89L212,5.89A19.36,19.36,0,0,0,198.22,0H116.77A19.34,19.34,0,0,0,103,5.89L74.58,33.36a19.36,19.36,0,0,1-13.74,5.89H39.25A39.36,39.36,0,0,0,0,78.5V215.88a39.36,39.36,0,0,0,39.25,39.25H274.76A39.36,39.36,0,0,0,314,215.88V78.5A39.36,39.36,0,0,0,274.76,39.25ZM157,206.07a68.69,68.69,0,1,1,68.69-68.69A68.27,68.27,0,0,1,157,206.07Z"/><path class="cls-2" d="M138.36,92.24c4.91,2.94,8.83,9.81,8.83,15.7a19.68,19.68,0,0,1-19.62,19.63c-6.87,0-12.76-2.95-15.7-8.83-12.76,32.38,10.79,67.7,45.14,67.7a49,49,0,1,0-18.65-94.2Zm38.27,74.58c-5.89,0-9.81-3.93-9.81-9.81s3.92-9.82,9.81-9.82,9.81,3.93,9.81,9.82S182.52,166.82,176.63,166.82Z"/></g></g></svg>