<svg xmlns="http://www.w3.org/2000/svg" viewBox="0 0 43.82 48.7"><g id="Capa_2" data-name="Capa 2"><g id="Capa_1-2" data-name="Capa 1"><path id="Icon_material-fingerprint" data-name="Icon material-fingerprint" d="M36.07,6a1.09,1.09,0,0,1-.56-.15A27.86,27.86,0,0,0,22,2.43,28,28,0,0,0,8.38,5.87,1.22,1.22,0,0,1,7.17,3.75l0,0a31,31,0,0,1,29.41,0,1.24,1.24,0,0,1,.47,1.68A1.25,1.25,0,0,1,36.07,6ZM1.23,18.8a1.27,1.27,0,0,1-.71-.22,1.21,1.21,0,0,1-.3-1.69v0a25.17,25.17,0,0,1,9.13-8,28.1,28.1,0,0,1,25.1,0,25.2,25.2,0,0,1,9.13,7.9,1.22,1.22,0,0,1-2,1.41,23,23,0,0,0-8.26-7.16,25.67,25.67,0,0,0-22.89,0,23.06,23.06,0,0,0-8.27,7.21A1.08,1.08,0,0,1,1.23,18.8ZM16.44,48.18a1.15,1.15,0,0,1-.85-.37,24.55,24.55,0,0,1-4.89-6.43A21.59,21.59,0,0,1,8.14,30.82,13.49,13.49,0,0,1,21.92,17.69,13.48,13.48,0,0,1,35.7,30.82a1.22,1.22,0,0,1-2.43,0A11,11,0,0,0,21.92,20.13,11,11,0,0,0,10.58,30.82a19,19,0,0,0,2.27,9.37,23.16,23.16,0,0,0,4.49,5.91,1.24,1.24,0,0,1,0,1.73,1.33,1.33,0,0,1-.9.35Zm17.46-4.5A13,13,0,0,1,20.56,30.82a1.22,1.22,0,0,1,2.43,0,10.46,10.46,0,0,0,4.73,8.67,10.65,10.65,0,0,0,6.18,1.73A15.27,15.27,0,0,0,36.43,41a1.22,1.22,0,1,1,.43,2.41,17.24,17.24,0,0,1-3,.29ZM29,48.7a1.64,1.64,0,0,1-.32-.05,19,19,0,0,1-9.06-5.12,17.77,17.77,0,0,1-5.28-12.71,7.33,7.33,0,0,1,7.5-7.15,7.34,7.34,0,0,1,7.5,7.15,5.08,5.08,0,0,0,10.13,0c0-9.17-7.92-16.63-17.66-16.63A17.79,17.79,0,0,0,5.73,24a15.82,15.82,0,0,0-1.44,6.81,24.22,24.22,0,0,0,1.64,8.79,1.2,1.2,0,0,1-.67,1.55h0a1.21,1.21,0,0,1-1.56-.7h0a27.41,27.41,0,0,1-1.78-9.65,18.29,18.29,0,0,1,1.66-7.88,20.19,20.19,0,0,1,18.28-11.2c11.08,0,20.09,8.54,20.09,19.06a7.51,7.51,0,0,1-15,0,4.89,4.89,0,0,0-5.06-4.72,4.91,4.91,0,0,0-5.07,4.72,15.35,15.35,0,0,0,4.55,11,16.63,16.63,0,0,0,8,4.51,1.19,1.19,0,0,1,.85,1.48h0A1.19,1.19,0,0,1,29,48.7Z"/></g></g></svg>