<svg xmlns="http://www.w3.org/2000/svg" viewBox="0 0 50 50"><g id="Capa_2" data-name="Capa 2"><g id="Capa_1-2" data-name="Capa 1"><path d="M25,0A25,25,0,1,0,50,25,25,25,0,0,0,25,0ZM3.4,25a20,20,0,0,1,1.2-6.9c2.3.5,4.8,1,7.3,1.3a51.15,51.15,0,0,0-.3,5.6,45.57,45.57,0,0,0,.6,7.5,57.69,57.69,0,0,1-7.9-1.7A16.37,16.37,0,0,1,3.4,25Zm11.4,0a45.78,45.78,0,0,1,.3-5.3c2.7.3,5.4.4,8.2.5V33.5q-4.05-.15-7.8-.6A48.36,48.36,0,0,1,14.8,25ZM26.7,3.7C30.1,5,33,10,34.4,16.6c-2.5.2-5.1.3-7.7.3Zm-3.3,0V16.9c-2.6-.1-5.2-.2-7.7-.4C17.1,9.9,20,4.9,23.4,3.7Zm0,33.1v9.5c-2.9-1.1-5.4-4.8-6.9-10A50.9,50.9,0,0,0,23.4,36.8Zm3.3,9.5V36.9h.8c2,0,4-.1,6-.2C32,41.7,29.5,45.3,26.7,46.3Zm.8-12.7h-.8V20.3a73.83,73.83,0,0,0,8.2-.4,41.16,41.16,0,0,1,.3,5.1,45.18,45.18,0,0,1-.8,8.4C32.1,33.5,29.8,33.6,27.5,33.6Zm10.7-14c2.6-.3,5.1-.7,7.4-1.2a20.7,20.7,0,0,1,1,6.6,20.19,20.19,0,0,1-1.2,7c-2.4.5-5,.8-7.7,1.1a41.43,41.43,0,0,0,.7-8.1A31.72,31.72,0,0,0,38.2,19.6Zm6.1-4.3c-2.1.4-4.3.7-6.7,1A29,29,0,0,0,33,4.9,21.32,21.32,0,0,1,44.3,15.3ZM16.9,4.9a28.85,28.85,0,0,0-4.5,11.2c-2.3-.3-4.5-.7-6.5-1.1A21.29,21.29,0,0,1,16.9,4.9ZM5.6,34.6c2.3.5,4.7,1,7.2,1.3A24.68,24.68,0,0,0,16.9,45,21.65,21.65,0,0,1,5.6,34.6ZM33.1,45.1A26.34,26.34,0,0,0,37,36.5c2.3-.2,4.6-.5,6.8-.8A21.86,21.86,0,0,1,33.1,45.1Z"/></g></g></svg>