<svg xmlns="http://www.w3.org/2000/svg" viewBox="0 0 48.45 50.47"><g id="Capa_2" data-name="Capa 2"><g id="Capa_1-2" data-name="Capa 1"><path d="M48.05,45.19,43,40.12A12.49,12.49,0,1,0,41,42.06l5.07,5.07a1.38,1.38,0,0,0,1.95-1.94Zm-7.91-6s0,0,0,0l0,0A9.63,9.63,0,1,1,43,32.39,9.62,9.62,0,0,1,40.1,39.23Z"/><path d="M34.87,47.72H2.75v-45H23.86v9.64a1.38,1.38,0,0,0,1.38,1.38h9.63v4.49a13.85,13.85,0,0,1,2.75.58V12.39a1.23,1.23,0,0,0,0-.27h0a2,2,0,0,0-.12-.34l0-.07a1.06,1.06,0,0,0-.22-.29l-11-11a1.94,1.94,0,0,0-.29-.21l-.08,0a1.27,1.27,0,0,0-.6-.15H1.38A1.38,1.38,0,0,0,0,1.38V49.1a1.37,1.37,0,0,0,1.38,1.37H36.25a1.37,1.37,0,0,0,1.37-1.37V45.93a13.47,13.47,0,0,1-2.75.59ZM32.92,11H26.61V4.7Z"/></g></g></svg>