<svg xmlns="http://www.w3.org/2000/svg" viewBox="0 0 51.03 47.81"><g id="Capa_2" data-name="Capa 2"><g id="Capa_1-2" data-name="Capa 1"><g id="Icon_ionic-ios-heart" data-name="Icon ionic-ios-heart"><path d="M25.51,47.81a6.53,6.53,0,0,1-4.12-1.46c-3.75-3-10.75-9.06-15.58-15.65A29.56,29.56,0,0,1,0,14.55,14.54,14.54,0,0,1,14.35,0h.13a14.53,14.53,0,0,1,11,5.12A14.57,14.57,0,0,1,36.54,0h.14A14.53,14.53,0,0,1,51,14.48,29.6,29.6,0,0,1,45.21,30.7c-4.82,6.59-11.82,12.63-15.57,15.65A6.56,6.56,0,0,1,25.51,47.81Zm-11-45.09h-.11A11.8,11.8,0,0,0,2.72,14.48,26.75,26.75,0,0,0,8,29.08c4.65,6.35,11.45,12.22,15.1,15.15a3.81,3.81,0,0,0,4.83,0C31.58,41.3,38.38,35.43,43,29.09a26.77,26.77,0,0,0,5.29-14.68A11.79,11.79,0,0,0,36.66,2.72h-.11a11.8,11.8,0,0,0-9.89,5.42L25.51,9.9,24.37,8.14A11.8,11.8,0,0,0,14.47,2.72Z"/></g></g></g></svg>