<svg xmlns="http://www.w3.org/2000/svg" viewBox="0 0 49.36 49.36"><g id="Capa_2" data-name="Capa 2"><g id="Capa_1-2" data-name="Capa 1"><path d="M1.73,16.84h0a2.63,2.63,0,0,0,.49.06H46.69a2.73,2.73,0,0,0,.5-.06h0a2.23,2.23,0,0,0,1.73-2.17V2.22A2.23,2.23,0,0,0,47.19.06h0a2.07,2.07,0,0,0-.5-.06H2.22a2,2,0,0,0-.49.06h0A2.23,2.23,0,0,0,0,2.22V14.67A2.23,2.23,0,0,0,1.73,16.84ZM19.92,8.45,2.67,13.76V3.14Zm-9.71,5.78L24.46,9.84l14.25,4.39ZM29,8.45,46.25,3.14V13.76Zm9.72-5.78L24.46,7.05,10.21,2.67Z"/><path d="M21.34,36.91a2.23,2.23,0,0,0,2.23-2.22V22.23A2.23,2.23,0,0,0,21.34,20H2.67A2.23,2.23,0,0,0,.44,22.23V34.69a2.23,2.23,0,0,0,2.23,2.22ZM3.11,22.68H20.9V34.24H3.11Z"/><path d="M47.14,20H28.46a2.22,2.22,0,0,0-2.22,2.22V34.69a2.22,2.22,0,0,0,2.22,2.22H47.14a2.23,2.23,0,0,0,2.22-2.22V22.23A2.23,2.23,0,0,0,47.14,20Zm-.45,14.23H28.9V22.68H46.69Z"/><rect x="1.78" y="40.02" width="4" height="4"/><rect x="8" y="40.69" width="40.47" height="2.67"/><rect x="1.78" y="45.36" width="4" height="4"/><rect x="8" y="46.02" width="40.47" height="2.67"/></g></g></svg>